<svg xmlns="http://www.w3.org/2000/svg" width="1600" height="900" viewBox="0 0 1600 900" preserveAspectRatio="xMidYMid slice">
  <defs>
    <linearGradient id="g1" x1="0%" x2="100%" y1="0%" y2="100%">
      <stop offset="0%" stop-color="#052c65" stop-opacity="1"/>
      <stop offset="50%" stop-color="#0f4ea8" stop-opacity="1"/>
      <stop offset="100%" stop-color="#1cb2df" stop-opacity="1"/>
    </linearGradient>
    <linearGradient id="g2" x1="0%" x2="100%" y1="100%" y2="0%">
      <stop offset="0%" stop-color="#0b2545" stop-opacity="0.95"/>
      <stop offset="100%" stop-color="#2a2a72" stop-opacity="0.95"/>
    </linearGradient>
    <filter id="blur" x="-20%" y="-20%" width="140%" height="140%">
      <feGaussianBlur stdDeviation="40" />
    </filter>
  </defs>

  <!-- Large abstract blobs -->
  <g filter="url(#blur)" opacity="0.95">
    <path d="M-200 200 C150 50, 400 50, 700 220 C1000 400, 1260 360, 1600 200 L1600 0 L-200 0 Z" fill="url(#g1)"/>
    <path d="M-100 700 C180 520, 520 580, 900 680 C1180 740, 1400 700, 1700 600 L1700 900 L-100 900 Z" fill="url(#g2)"/>
  </g>

  <!-- Mesh lines (subtle) -->
  <g stroke="#ffffff" stroke-opacity="0.03" fill="none" stroke-width="1">
    <path d="M0 120 C200 30, 400 200, 600 150 C800 100, 1000 240, 1200 180 C1400 120, 1600 220"/>
    <path d="M0 320 C200 230, 400 400, 600 350 C800 300, 1000 440, 1200 380 C1400 320, 1600 420"/>
    <path d="M0 520 C200 430, 400 600, 600 550 C800 500, 1000 640, 1200 580 C1400 520, 1600 620"/>
  </g>

</svg>
